<svg width="13" height="13" viewBox="0 0 13 13" fill="none" xmlns="http://www.w3.org/2000/svg">
<path d="M1.5 1C1.33333 1 1 1.10909 1 1.54545M1.5 1C2.66667 1 4.6 1 5 1M1.5 1H5M1 1.54545C1 1.98182 1 8.04545 1 11.5M1 1.54545V11.5M1 11.5C1 11.6818 1.1 12 1.5 12M1.5 12C1.9 12 3.83333 12 5 12M1.5 12H5M5 12C5.16667 12 5.5 11.9364 5.5 11.5M5.5 11.5C5.5 11.0636 5.5 4.95455 5.5 1.5M5.5 11.5V1.5M5.5 1.5C5.5 1.31818 5.4 1 5 1M12.5 1.54545C12.5 1 12 1 12 1M12.5 1.54545C12.5 2.37879 12.5 4.1 12.5 4.5M12.5 1.54545V4.5M12 1C12 1 9.66667 1 9 1M12 1H9M9 1C8.83333 1.0303 8.5 1.18182 8.5 1.54545M8.5 1.54545C8.5 1.90909 8.5 3.5 8.5 4.5M8.5 1.54545V4.5M8.5 4.5C8.5 4.66667 8.6 5 9 5M9 5C9.4 5 11 5 12 5M9 5H12M12 5C12.1667 5 12.5 4.9 12.5 4.5M12.5 8.54545C12.5 8 12 8 12 8H9C8.83333 8.0303 8.5 8.18182 8.5 8.54545V9.77273V11.5C8.5 11.6667 8.6 12 9 12H12C12.1667 12 12.5 11.9 12.5 11.5V8.54545Z" stroke="#1E1E1E"/>
</svg>
