<svg width="14" height="14" viewBox="0 0 14 14" fill="none" xmlns="http://www.w3.org/2000/svg">
<path d="M1.5 1C1.33333 1 1 1.10909 1 1.54545M1.5 1C2.66667 1 5.1 1 5.5 1M1.5 1H5.5M1 1.54545C1 1.98182 1 9 1 12.4545M1 1.54545V12.4545M1 12.4545C1 12.6364 1.1 13 1.5 13M1.5 13C1.9 13 4.33333 13 5.5 13M1.5 13H5.5M5.5 13C5.66667 13 6 12.8909 6 12.4545M6 12.4545C6 12.0182 6 5 6 1.54545M6 12.4545V1.54545M6 1.54545C6 1.36364 5.9 1 5.5 1M13 1.54545C13 1 12.5 1 12.5 1M13 1.54545C13 2.37879 13 4.6 13 5M13 1.54545V5M12.5 1C12.5 1 9.66667 1 9 1M12.5 1H9M9 1C8.83333 1.0303 8.5 1.18182 8.5 1.54545M8.5 1.54545C8.5 1.90909 8.5 4 8.5 5M8.5 1.54545V5M8.5 5C8.5 5.16667 8.6 5.5 9 5.5M9 5.5C9.4 5.5 11.5 5.5 12.5 5.5M9 5.5H12.5M12.5 5.5C12.6667 5.5 13 5.4 13 5M13 9.04545C13 8.5 12.5 8.5 12.5 8.5H9C8.83333 8.5303 8.5 8.68182 8.5 9.04545V10.7727V12.5C8.5 12.6667 8.6 13 9 13H12.5C12.6667 13 13 12.9 13 12.5V9.04545Z" stroke="#1E1E1E"/>
</svg>
