<svg width="14" height="14" viewBox="0 0 14 14" fill="none" xmlns="http://www.w3.org/2000/svg">
<path d="M13 1.5C13 1.1 12.6667 1 12.5 1L9 1L9 13L12.5 13C12.9 13 13 12.6667 13 12.5L13 1.5Z" fill="#CCCCCC"/>
<path d="M13 1.5C13 1.1 12.6667 1 12.5 1L9 1M13 1.5C13 1.9 13 9 13 12.5M13 1.5L13 12.5M13 12.5C13 12.6667 12.9 13 12.5 13M12.5 13C12.2952 13 11.3346 13 9 13M12.5 13L9 13M9 13C6.77413 13 3.20827 13 1.5 13C1.33333 13 1 12.9 1 12.5L1 1.5C1 1.33333 1.1 1 1.5 1C1.76158 1 5.88842 1 9 1M9 13L9 1" stroke="#CCCCCC"/>
</svg>
