<svg width="14" height="14" viewBox="0 0 14 14" fill="none" xmlns="http://www.w3.org/2000/svg">
<path d="M0.999999 12.5C0.999999 12.9 1.33333 13 1.5 13L5 13L5 1L1.5 0.999999C1.1 0.999999 1 1.33333 1 1.5L0.999999 12.5Z" fill="#CCCCCC"/>
<path d="M0.999999 12.5C0.999999 12.9 1.33333 13 1.5 13L5 13M0.999999 12.5C1 12.1 1 5 1 1.5M0.999999 12.5L1 1.5M1 1.5C1 1.33333 1.1 0.999999 1.5 0.999999M1.5 0.999999C1.70477 1 2.66538 1 5 1M1.5 0.999999L5 1M5 1C7.22587 1 10.7917 1 12.5 1C12.6667 1 13 1.1 13 1.5L13 12.5C13 12.6667 12.9 13 12.5 13C12.2384 13 8.11158 13 5 13M5 1L5 13" stroke="#CCCCCC"/>
</svg>
