<svg width="14" height="14" viewBox="0 0 14 14" fill="none" xmlns="http://www.w3.org/2000/svg">
<path d="M12.5 13C12.9 13 13 12.6667 13 12.5V9H1V12.5C1 12.9 1.33333 13 1.5 13H12.5Z" fill="#CCCCCC"/>
<path d="M12.5 13C12.9 13 13 12.6667 13 12.5V9M12.5 13C12.1 13 5 13 1.5 13M12.5 13H1.5M1.5 13C1.33333 13 1 12.9 1 12.5M1 12.5C1 12.2952 1 11.3346 1 9M1 12.5V9M1 9C1 6.77413 1 3.20827 1 1.5C1 1.33333 1.1 1 1.5 1H12.5C12.6667 1 13 1.1 13 1.5C13 1.76158 13 5.88842 13 9M1 9H13" stroke="#CCCCCC"/>
</svg>
